<?xml version="1.0" encoding="utf-8"?>
<!-- Generator: Adobe Illustrator 19.2.0, SVG Export Plug-In . SVG Version: 6.00 Build 0)  -->
<svg version="1.1" id="Layer_1" xmlns="http://www.w3.org/2000/svg" xmlns:xlink="http://www.w3.org/1999/xlink" x="0px" y="0px"
	 viewBox="0 0 249 197" style="enable-background:new 0 0 249 197;" xml:space="preserve">
<style type="text/css">
	.st0{fill:#FFFFFF;stroke:#000000;stroke-miterlimit:10;}
</style>
<path class="st0" d="M31,137c-1.6-1.9-32.6-41-18-78c17.4-44.2,88.8-57.7,125-28c20.6,16.9,24.3,43.5,25.2,53.5
	c0.3,4.2,2.4,39.8-24.2,62.5c-24.8,21.3-64.3,22.5-95,1c27-25.7,54-51.3,81-77c-29.3,0-58.7,0-88,0"/>
<path class="st0" d="M232,43c-8.8,6.4-17.5,12.8-26.3,19.2c-12.8,9.3-25.6,18.7-38.4,28c-0.8,0.6-1.6,1.1-2.4,1.7
	c4.3-54.6,6.3-82,6-82c-0.5,0-6.2,60.6-17,182"/>
<path class="st0" d="M634,182"/>
<path class="st0" d="M239,191c-8.6-1.9-30.1-7.7-48-27c-26.7-28.8-24.5-64.7-24-71"/>
<path class="st0" d="M16,33"/>
</svg>
